<svg xmlns="http://www.w3.org/2000/svg" width="21.037" height="20.007" viewBox="0 0 21.037 20.007">
  <path id="Caminho_1642" data-name="Caminho 1642" d="M449.226,826.058l-4.98-7.512a1.892,1.892,0,0,0-1.577-.847h-.024a1.892,1.892,0,0,0-1.574,2.942l3.61,5.412a1.892,1.892,0,0,1,0,2.1l-3.61,5.412a1.892,1.892,0,0,0,1.574,2.942h.024a1.892,1.892,0,0,0,1.577-.847l4.98-7.512A1.892,1.892,0,0,0,449.226,826.058Zm-17.56-8.358h0a1.892,1.892,0,0,0-1.577,2.938l3.594,5.42a1.892,1.892,0,0,1,0,2.091l-3.594,5.42a1.892,1.892,0,0,0,1.577,2.938h0a1.892,1.892,0,0,0,1.574-.842l5.009-7.512a1.892,1.892,0,0,0,0-2.1l-5.009-7.512A1.892,1.892,0,0,0,431.666,817.7Z" transform="translate(-429.145 -817.1)" fill="none" stroke="#15e7b1" stroke-width="1.2" fill-rule="evenodd"/>
</svg>
